<mxfile host="app.diagrams.net" agent="Mozilla/5.0 (X11; Linux x86_64; rv:128.0) Gecko/20100101 Firefox/128.0" version="25.0.3">
  <diagram name="Page-1" id="gV0o_vzMScAR6xfJ5krI">
    <mxGraphModel dx="1434" dy="761" grid="1" gridSize="10" guides="1" tooltips="1" connect="1" arrows="1" fold="1" page="1" pageScale="1" pageWidth="827" pageHeight="1169" math="0" shadow="0">
      <root>
        <mxCell id="0" />
        <mxCell id="1" parent="0" />
        <mxCell id="kf90tWIn5kp3TJyy42nC-46" value="" style="edgeStyle=orthogonalEdgeStyle;rounded=0;orthogonalLoop=1;jettySize=auto;html=1;" edge="1" parent="1" source="kf90tWIn5kp3TJyy42nC-30" target="kf90tWIn5kp3TJyy42nC-45">
          <mxGeometry relative="1" as="geometry" />
        </mxCell>
        <mxCell id="kf90tWIn5kp3TJyy42nC-30" value="&lt;div&gt;&lt;font style=&quot;font-size: 17px;&quot;&gt;Cybersecurity&lt;/font&gt;&lt;/div&gt;&lt;div&gt;&lt;font style=&quot;font-size: 17px;&quot;&gt;CompTIA&lt;/font&gt;&lt;/div&gt;&lt;div&gt;&lt;font style=&quot;font-size: 17px;&quot;&gt;&lt;font&gt;Preperation&lt;/font&gt;&lt;font&gt;&lt;br&gt;&lt;/font&gt;&lt;/font&gt;&lt;/div&gt;" style="ellipse;whiteSpace=wrap;html=1;aspect=fixed;container=1;" vertex="1" parent="1">
          <mxGeometry x="310" y="460" width="154" height="154" as="geometry" />
        </mxCell>
        <mxCell id="kf90tWIn5kp3TJyy42nC-45" value="&lt;div&gt;&lt;font style=&quot;font-size: 15px;&quot;&gt;General Security &lt;br&gt;&lt;/font&gt;&lt;/div&gt;&lt;div&gt;&lt;font style=&quot;font-size: 15px;&quot;&gt;Concept &lt;br&gt;&lt;/font&gt;&lt;/div&gt;&lt;div&gt;&lt;font style=&quot;font-size: 15px;&quot;&gt;&lt;font&gt;&lt;br&gt;&lt;/font&gt;&lt;/font&gt;&lt;/div&gt;" style="ellipse;whiteSpace=wrap;html=1;aspect=fixed;container=1;" vertex="1" parent="1">
          <mxGeometry x="310" y="720" width="154" height="154" as="geometry">
            <mxRectangle x="307" y="720" width="160" height="70" as="alternateBounds" />
          </mxGeometry>
        </mxCell>
      </root>
    </mxGraphModel>
  </diagram>
</mxfile>
